<?xml version="1.0" standalone="no"?>
<svg viewBox="0 0 200 200" xmlns="http://www.w3.org/2000/svg">
  <path fill="#008083" d="M38.3,-67.8C44.1,-56,39.3,-35.9,40,-21.9C40.7,-7.9,46.9,-0.1,50.3,10.3C53.6,20.8,54,34,49.4,47.1C44.7,60.2,35,73.1,22,78.7C9,84.2,-7.3,82.3,-19.2,74.6C-31,66.8,-38.4,53.2,-50,42.1C-61.6,30.9,-77.4,22.2,-76.6,12.4C-75.8,2.7,-58.4,-8,-48.6,-19.2C-38.8,-30.3,-36.6,-42,-29.8,-53.3C-23,-64.6,-11.5,-75.5,2.4,-79.3C16.3,-83,32.6,-79.6,38.3,-67.8Z" transform="translate(100 100)" />
</svg>
