<svg width="1920" height="1080" viewBox="0 0 1920 1080" xmlns="http://www.w3.org/2000/svg"><rect width="1920" height="1080" fill="#000000"/><path d="M 0,1080 C 0,1080 0,180 0,180 C 8.756410256410248,184.74871794871797 17.512820512820497,189.4974358974359 149,175 C 280.4871794871795,160.5025641025641 534.7051282051283,126.75897435897434 676,136 C 817.2948717948717,145.24102564102566 845.6666666666665,197.4666666666667 950,216 C 1054.3333333333335,234.5333333333333 1234.628205128205,219.37435897435898 1370,197 C 1505.371794871795,174.62564102564102 1595.8205128205127,145.03589743589743 1680,141 C 1764.1794871794873,136.96410256410257 1842.0897435897436,158.4820512820513 1920,180 C 1920,180 1920,1080 1920,1080 Z" fill="#3d1053" opacity="0.09999999999999999"/><path d="M 0,1080 C 0,1080 0,360 0,360 C 47.29743589743589,389.81025641025644 94.59487179487178,419.62051282051283 174,418 C 253.40512820512822,416.37948717948717 364.9179487179488,383.3282051282051 548,377 C 731.0820512820512,370.6717948717949 985.7333333333331,391.0666666666666 1092,377 C 1198.2666666666669,362.9333333333334 1156.148717948718,314.4051282051282 1222,305 C 1287.851282051282,295.5948717948718 1461.6717948717946,325.31282051282045 1596,341 C 1730.3282051282054,356.68717948717955 1825.1641025641027,358.34358974358975 1920,360 C 1920,360 1920,1080 1920,1080 Z" fill="#3d1053" opacity="0.19999999999999998"/><path d="M 0,1080 C 0,1080 0,540 0,540 C 44.44358974358974,520.7717948717949 88.88717948717948,501.5435897435898 190,507 C 291.1128205128205,512.4564102564102 448.89487179487173,542.597435897436 578,547 C 707.1051282051283,551.402564102564 807.5333333333334,530.0666666666666 869,522 C 930.4666666666666,513.9333333333334 952.9717948717948,519.1358974358974 1105,533 C 1257.0282051282052,546.8641025641026 1538.5794871794872,569.3897435897436 1696,572 C 1853.4205128205128,574.6102564102564 1886.7102564102565,557.3051282051282 1920,540 C 1920,540 1920,1080 1920,1080 Z" fill="#3d1053" opacity="0.3"/><path d="M 0,1080 C 0,1080 0,720 0,720 C 179.57179487179488,745.1128205128205 359.14358974358976,770.225641025641 431,754 C 502.85641025641024,737.774358974359 466.9974358974358,680.2102564102564 549,676 C 631.0025641025642,671.7897435897436 830.8666666666668,720.9333333333333 971,717 C 1111.1333333333332,713.0666666666667 1191.5358974358974,656.0564102564102 1318,667 C 1444.4641025641026,677.9435897435898 1616.9897435897435,756.8410256410257 1725,777 C 1833.0102564102565,797.1589743589743 1876.5051282051281,758.5794871794872 1920,720 C 1920,720 1920,1080 1920,1080 Z" fill="#3d1053" opacity="0.39999999999999997"/><path d="M 0,1080 C 0,1080 0,900 0,900 C 41.874358974358984,860.9487179487179 83.74871794871797,821.8974358974358 173,841 C 262.25128205128203,860.1025641025642 398.8794871794871,937.3589743589744 515,950 C 631.1205128205129,962.6410256410256 726.7333333333333,910.6666666666665 867,890 C 1007.2666666666667,869.3333333333335 1192.1871794871797,879.9743589743591 1341,889 C 1489.8128205128203,898.0256410256409 1602.5179487179487,905.4358974358973 1693,907 C 1783.4820512820513,908.5641025641027 1851.7410256410258,904.2820512820513 1920,900 C 1920,900 1920,1080 1920,1080 Z" fill="#3d1053" opacity="0.49999999999999994"/></svg>