<svg width="1920" height="1080" viewBox="0 0 1920 1080" xmlns="http://www.w3.org/2000/svg"><rect width="1920" height="1080" fill="#30b700"/><path d="M 0,1080 C 0,1080 0,180 0,180 C 23.25641025641025,214.9153846153846 46.5128205128205,249.83076923076922 192,233 C 337.4871794871795,216.16923076923078 605.2051282051282,147.5923076923077 738,147 C 870.7948717948718,146.4076923076923 868.6666666666665,213.79999999999995 981,226 C 1093.3333333333335,238.20000000000005 1320.128205128205,195.20769230769235 1427,191 C 1533.871794871795,186.79230769230765 1520.820512820513,221.36923076923077 1583,226 C 1645.179487179487,230.63076923076923 1782.5897435897436,205.31538461538463 1920,180 C 1920,180 1920,1080 1920,1080 Z" fill="#3d1053" opacity="0.09999999999999999"/><path d="M 0,1080 C 0,1080 0,360 0,360 C 50.31282051282051,394.7205128205128 100.62564102564102,429.44102564102565 212,426 C 323.374358974359,422.55897435897435 495.81025641025644,380.9564102564102 642,366 C 788.1897435897436,351.0435897435898 908.1333333333334,362.7333333333333 1040,355 C 1171.8666666666666,347.2666666666667 1315.65641025641,320.1102564102564 1377,304 C 1438.34358974359,287.8897435897436 1417.2410256410255,282.82564102564106 1494,294 C 1570.7589743589745,305.17435897435894 1745.3794871794871,332.58717948717947 1920,360 C 1920,360 1920,1080 1920,1080 Z" fill="#3d1053" opacity="0.19999999999999998"/><path d="M 0,1080 C 0,1080 0,540 0,540 C 169.02307692307693,521.9410256410256 338.04615384615386,503.8820512820513 458,519 C 577.9538461538461,534.1179487179487 648.8384615384616,582.4128205128205 726,584 C 803.1615384615384,585.5871794871795 886.6,540.4666666666667 936,531 C 985.4,521.5333333333333 1000.7615384615385,547.7205128205128 1113,546 C 1225.2384615384615,544.2794871794872 1434.353846153846,514.6512820512821 1585,509 C 1735.646153846154,503.34871794871793 1827.823076923077,521.6743589743589 1920,540 C 1920,540 1920,1080 1920,1080 Z" fill="#3d1053" opacity="0.3"/><path d="M 0,1080 C 0,1080 0,720 0,720 C 128.2948717948718,718.3102564102564 256.5897435897436,716.6205128205129 312,715 C 367.4102564102564,713.3794871794871 349.93589743589746,711.8282051282051 488,695 C 626.0641025641025,678.1717948717949 919.6666666666667,646.0666666666667 1045,657 C 1170.3333333333333,667.9333333333333 1127.397435897436,721.9051282051282 1176,736 C 1224.602564102564,750.0948717948718 1364.7435897435898,724.3128205128204 1504,715 C 1643.2564102564102,705.6871794871796 1781.628205128205,712.8435897435897 1920,720 C 1920,720 1920,1080 1920,1080 Z" fill="#3d1053" opacity="0.39999999999999997"/><path d="M 0,1080 C 0,1080 0,900 0,900 C 139.02307692307696,942.2179487179487 278.0461538461539,984.4358974358975 335,966 C 391.9538461538461,947.5641025641025 366.8384615384614,868.474358974359 482,842 C 597.1615384615386,815.525641025641 852.6000000000001,841.6666666666665 972,875 C 1091.3999999999999,908.3333333333335 1074.7615384615383,948.8589743589744 1180,940 C 1285.2384615384617,931.1410256410256 1512.3538461538462,872.8974358974359 1656,858 C 1799.6461538461538,843.1025641025641 1859.8230769230768,871.551282051282 1920,900 C 1920,900 1920,1080 1920,1080 Z" fill="#3d1053" opacity="0.49999999999999994"/></svg>